# xmcd
#
# Track frame offsets:
#	150
#	20737
#	43120
#	61128
#	94353
#	114000
#	127192
#	146510
#	165529
#	189031
#	213667
#	227842
#	239856
#	261838
#	294393
#
# Disc length: 4131 seconds
#
# Revision: 0
# Processed by: cddbd v1.5.1PL2 Copyright (c) Steve Scherf et al.
# Submitted via: dBpowerAMP V4.0
#
DISCID=de10210f
DTITLE=Oreo Blue - Ten Down
DYEAR=1900
DGENRE=Blues
TTITLE0=I'm Standing Here
TTITLE1=Blues Thang
TTITLE2=Dimples
TTITLE3=Things I've Done and Seen
TTITLE4=Bye Bye Baby
TTITLE5=That's the Time
TTITLE6=Man Song
TTITLE7=Obluterated
TTITLE8=Messin' With the Kid
TTITLE9=Ain't No Sunshine
TTITLE10=Two Frogs Boogie
TTITLE11=Holdin' Out on Me
TTITLE12=Born to Suffer
TTITLE13=Hideaway
TTITLE14=DATA
EXTD=
EXTT0=
EXTT1=
EXTT2=
EXTT3=
EXTT4=
EXTT5=
EXTT6=
EXTT7=
EXTT8=
EXTT9=
EXTT10=
EXTT11=
EXTT12=
EXTT13=
EXTT14=
PLAYORDER=
